<svg width="5474" height="7015" viewBox="0 0 5474 7015" fill="none" xmlns="http://www.w3.org/2000/svg">
<g clip-path="url(#clip0_112_70)">
<rect width="5474" height="7015" fill="#242424"/>
<g clip-path="url(#clip1_112_70)">
<rect x="407.157" y="2959.65" width="5428.76" height="3627.68" fill="#242424"/>
<path d="M4543.12 -3872.32C4992.67 -2686.71 4055.22 -1088.71 4717.65 491.585C5380.09 2071.88 7641.75 3633.43 7617.95 4616.5C7594.15 5599.56 5284.89 6004.14 3542.2 5636.01C1800.17 5268.4 625.375 4128.09 -1031.37 3767.25C-2687.45 3406.41 -4825.49 3824.53 -6120.6 3271.55C-7415.72 2718.58 -7868.58 1194 -7487.78 -163.443C-7106.32 -1520.88 -5891.86 -2711.7 -4434.77 -3757.25C-2977.02 -4802.8 -1277.3 -5703.07 490.508 -5766.59C2258.32 -5830.64 4094.22 -5057.93 4543.12 -3872.32Z" fill="white"/>
</g>
<path d="M3445.52 1759.11C3308.92 2210.17 3103.5 2412.24 3088.13 2727.7C3072.75 3043.15 3247.56 3471.84 2973.47 3750.84C2699.06 4029.71 1975.14 4158.64 1423.55 3970.71C871.515 3782.8 491.496 3277.91 -364.273 2843.02C-1219.73 2408.26 -2550.97 2043.09 -2551.91 1829.87C-2552.71 1616.5 -1223.07 1554.94 -588.373 1118.69C46.3242 682.453 -13.9202 -128.467 587.967 -392.662C1190.17 -656.735 2454.19 -374.207 3052.14 117.025C3650.1 608.256 3582.44 1308.17 3445.52 1759.11Z" fill="#CCAC00"/>
</g>
<defs>
<clipPath id="clip0_112_70">
<rect width="5474" height="7015" fill="white"/>
</clipPath>
<clipPath id="clip1_112_70">
<rect width="5474" height="7518.77" fill="white"/>
</clipPath>
</defs>
</svg>
