<svg width="147" height="145" viewBox="0 0 147 145" fill="none" xmlns="http://www.w3.org/2000/svg">
<ellipse cx="73.5" cy="72.5" rx="73.5" ry="72.5" fill="url(#paint0_linear_246_7)"/>
<path d="M39.8933 69.4769C39.6159 60.4024 50.4098 38.7558 55.8414 29.0669C44.7471 33.9114 22.7666 53.4547 23.5987 92.8721C23.5986 97.244 25.9559 107.335 35.3861 112.723C44.8163 118.111 55.4946 114.968 59.655 112.723C62.7753 110.832 70.0559 104.57 70.7493 93.5811C71.7894 82.9469 64.0236 63.2381 39.8933 69.4769Z" fill="white"/>
<path d="M91.8977 69.4769C91.6203 60.4024 102.414 38.7558 107.846 29.0669C96.7515 33.9114 74.771 53.4547 75.603 92.8721C75.603 97.244 77.9603 107.335 87.3905 112.723C96.8207 118.111 107.499 114.968 111.659 112.723C114.78 110.832 122.06 104.57 122.754 93.5811C123.794 82.9469 116.028 63.2381 91.8977 69.4769Z" fill="white"/>
<defs>
<linearGradient id="paint0_linear_246_7" x1="103.448" y1="6.28333" x2="22.5238" y2="124.455" gradientUnits="userSpaceOnUse">
<stop stop-color="#F1DF91"/>
<stop offset="0.0935763" stop-color="#FDF3AC"/>
<stop offset="0.200091" stop-color="#FAE366"/>
<stop offset="0.379997" stop-color="#DEC269"/>
<stop offset="0.55973" stop-color="#C39130"/>
<stop offset="0.756444" stop-color="#C99C3D"/>
<stop offset="0.868849" stop-color="#EFDE8F"/>
<stop offset="0.947293" stop-color="#E1C56E"/>
</linearGradient>
</defs>
</svg>
