<svg width="696" height="668" viewBox="0 0 696 668" fill="none" xmlns="http://www.w3.org/2000/svg">
<path d="M362.48 267.028L385.34 232.406C158.399 122.224 67.718 337.536 90.1082 425.332L131.126 422.915C122.15 232.82 288.563 221.274 362.48 267.028Z" fill="url(#paint0_linear_116_379)"/>
<rect x="410.514" y="212.725" width="59" height="45.0316" transform="rotate(43.074 410.514 212.725)" fill="#CCAC00" stroke="black" stroke-width="10"/>
<path d="M397.225 544.335C197.332 647.962 110.736 506.987 92.4242 423.546L130.92 418.245C186.328 581.654 312.588 546.779 368.792 508.916L397.225 544.335Z" fill="url(#paint1_linear_116_379)"/>
<path d="M364.907 510.466C483.559 412.135 408.096 304.097 356.787 263.931L382.86 227.587C538.03 367.124 455.766 500.042 394.065 546.789L364.907 510.466Z" fill="url(#paint2_linear_116_379)"/>
<path d="M412.499 212.034L411.37 128.442L461.865 121.766L499.217 158.104L502.861 161.649L544.313 201.976L541.455 256.983L458.287 254.135L441.346 238.558L424.404 222.98L412.499 212.034Z" fill="#93F8FF"/>
<path d="M411.37 128.442L412.499 212.034L424.404 222.98M411.37 128.442L461.865 121.766M411.37 128.442L446.534 163.188M461.865 121.766L499.217 158.104L502.861 161.649M461.865 121.766L446.534 163.188M544.313 201.976L541.455 256.983M544.313 201.976L502.861 161.649M544.313 201.976L501.265 217.27M541.455 256.983L458.287 254.135L441.346 238.558M541.455 256.983L501.265 217.27M424.404 222.98L441.346 238.558M424.404 222.98L446.534 163.188M441.346 238.558L501.265 217.27M446.534 163.188L502.861 161.649M446.534 163.188L501.265 217.27M502.861 161.649L501.265 217.27" stroke="black" stroke-width="10"/>
<mask id="path-7-inside-1_116_379" fill="white">
<path fill-rule="evenodd" clip-rule="evenodd" d="M123.869 513.714C191.978 598.559 315.971 612.126 400.816 544.017C485.661 475.908 499.228 351.915 431.119 267.07C363.01 182.225 239.016 168.658 154.171 236.767C69.3267 304.876 55.7597 428.87 123.869 513.714ZM164.559 481.051C214.628 543.423 305.78 553.397 368.152 503.327C430.525 453.258 440.498 362.106 390.429 299.734C340.36 237.361 249.208 227.388 186.835 277.457C124.463 327.526 114.489 418.678 164.559 481.051Z"/>
</mask>
<path d="M394.556 536.219C314.018 600.871 196.319 587.992 131.667 507.454L116.07 519.974C187.637 609.126 317.924 623.382 407.076 551.815L394.556 536.219ZM423.32 273.33C487.972 353.868 475.094 471.567 394.556 536.219L407.076 551.815C496.227 480.249 510.483 349.962 438.917 260.81L423.32 273.33ZM160.431 244.565C240.969 179.914 358.669 192.792 423.32 273.33L438.917 260.81C367.351 171.658 237.063 157.403 147.911 228.969L160.431 244.565ZM131.667 507.454C67.0152 426.916 79.8935 309.217 160.431 244.565L147.911 228.969C58.7598 300.535 44.5041 430.823 116.07 519.974L131.667 507.454ZM361.892 495.529C303.827 542.141 218.969 532.856 172.357 474.791L156.76 487.311C210.287 553.99 307.733 564.652 374.412 511.126L361.892 495.529ZM382.631 305.994C429.243 364.059 419.958 448.917 361.892 495.529L374.412 511.126C441.091 457.599 451.754 360.153 398.227 293.474L382.631 305.994ZM193.095 285.255C251.161 238.643 336.019 247.928 382.631 305.994L398.227 293.474C344.7 226.795 247.254 216.132 180.575 269.659L193.095 285.255ZM172.357 474.791C125.745 416.725 135.03 331.867 193.095 285.255L180.575 269.659C113.896 323.185 103.234 420.632 156.76 487.311L172.357 474.791Z" fill="black" mask="url(#path-7-inside-1_116_379)"/>
<defs>
<linearGradient id="paint0_linear_116_379" x1="65.917" y1="166.126" x2="273.402" y2="442.556" gradientUnits="userSpaceOnUse">
<stop offset="0.0146268" stop-color="#FFF5BE"/>
<stop offset="0.575746" stop-color="#FFF5BE"/>
<stop offset="0.705833" stop-color="white"/>
</linearGradient>
<linearGradient id="paint1_linear_116_379" x1="324.851" y1="284.825" x2="122.119" y2="730.854" gradientUnits="userSpaceOnUse">
<stop offset="0.369792" stop-color="white"/>
<stop offset="0.625" stop-color="#EBD03F"/>
</linearGradient>
<linearGradient id="paint2_linear_116_379" x1="570.5" y1="425.791" x2="282.846" y2="425.791" gradientUnits="userSpaceOnUse">
<stop offset="0.416667" stop-color="#CCAC00"/>
<stop offset="0.697917" stop-color="white"/>
</linearGradient>
</defs>
</svg>
